<svg width="16" height="16" viewBox="0 0 16 16" fill="none" xmlns="http://www.w3.org/2000/svg">
<path d="M7.33333 2.66667H2.66666C2.31304 2.66667 1.9739 2.80715 1.72385 3.0572C1.4738 3.30724 1.33333 3.64638 1.33333 4.00001V13.3333C1.33333 13.687 1.4738 14.0261 1.72385 14.2761C1.9739 14.5262 2.31304 14.6667 2.66666 14.6667H12C12.3536 14.6667 12.6928 14.5262 12.9428 14.2761C13.1929 14.0261 13.3333 13.687 13.3333 13.3333V8.66667" stroke="black" stroke-width="0.666667" stroke-linecap="round" stroke-linejoin="round"/>
<path d="M12.3333 1.66667C12.5985 1.40145 12.9583 1.25246 13.3333 1.25246C13.7084 1.25246 14.0681 1.40145 14.3333 1.66667C14.5985 1.93189 14.7475 2.2916 14.7475 2.66667C14.7475 3.04174 14.5985 3.40145 14.3333 3.66667L7.99999 10L5.33333 10.6667L5.99999 8L12.3333 1.66667Z" stroke="black" stroke-width="0.666667" stroke-linecap="round" stroke-linejoin="round"/>
</svg>
