<svg width="39" height="30" viewBox="0 0 39 30" fill="none" xmlns="http://www.w3.org/2000/svg">
<g id="iconoir:attachment">
<path id="Vector" d="M34.8363 14.5775L19.9026 26.065C18.0731 27.4723 15.5917 28.263 13.0044 28.263C10.4171 28.263 7.93582 27.4723 6.10632 26.065C4.27682 24.6577 3.24902 22.749 3.24902 20.7588C3.24902 18.7686 4.27682 16.8598 6.10632 15.4525L21.0401 3.96504C22.2597 3.02683 23.914 2.49976 25.6388 2.49976C27.3637 2.49976 29.0179 3.02683 30.2376 3.96504C31.4572 4.90324 32.1424 6.17572 32.1424 7.50254C32.1424 8.82936 31.4572 10.1018 30.2376 11.04L15.2876 22.5275C14.9856 22.7598 14.6271 22.9441 14.2326 23.0698C13.8381 23.1955 13.4152 23.2602 12.9882 23.2602C12.5612 23.2602 12.1383 23.1955 11.7438 23.0698C11.3493 22.9441 10.9908 22.7598 10.6888 22.5275C10.3869 22.2953 10.1473 22.0195 9.98392 21.716C9.8205 21.4125 9.73639 21.0873 9.73639 20.7588C9.73639 20.4303 9.8205 20.105 9.98392 19.8015C10.1473 19.4981 10.3869 19.2223 10.6888 18.99L24.4851 8.39004" stroke="#7D7D7D" stroke-width="1.5" stroke-linecap="round" stroke-linejoin="round"/>
</g>
</svg>
