<svg width="32" height="32" viewBox="0 0 32 32" fill="none" xmlns="http://www.w3.org/2000/svg">
<rect width="32" height="32" rx="6" fill="#28A745" fill-opacity="0.1"/>
<g clip-path="url(#clip0_599_2431)">
<path d="M15.9999 22.6663C19.6818 22.6663 22.6666 19.6816 22.6666 15.9997C22.6666 12.3178 19.6818 9.33301 15.9999 9.33301C12.318 9.33301 9.33325 12.3178 9.33325 15.9997C9.33325 19.6816 12.318 22.6663 15.9999 22.6663Z" stroke="#28A745" stroke-linecap="round" stroke-linejoin="round"/>
<path d="M16 20C18.2091 20 20 18.2091 20 16C20 13.7909 18.2091 12 16 12C13.7909 12 12 13.7909 12 16C12 18.2091 13.7909 20 16 20Z" stroke="#28A745" stroke-linecap="round" stroke-linejoin="round"/>
<path d="M16.0001 17.3337C16.7365 17.3337 17.3334 16.7367 17.3334 16.0003C17.3334 15.2639 16.7365 14.667 16.0001 14.667C15.2637 14.667 14.6667 15.2639 14.6667 16.0003C14.6667 16.7367 15.2637 17.3337 16.0001 17.3337Z" stroke="#28A745" stroke-linecap="round" stroke-linejoin="round"/>
</g>
<defs>
<clipPath id="clip0_599_2431">
<rect width="16" height="16" fill="white" transform="translate(8 8)"/>
</clipPath>
</defs>
</svg>
