<svg width="32" height="32" viewBox="0 0 32 32" fill="none" xmlns="http://www.w3.org/2000/svg">
<rect width="32" height="32" rx="8" fill="#0DCAF0" fill-opacity="0.1"/>
<path fill-rule="evenodd" clip-rule="evenodd" d="M10 10.5C9.72386 10.5 9.5 10.7239 9.5 11V12C9.5 12.2761 9.72386 12.5 10 12.5H11C11.2761 12.5 11.5 12.2761 11.5 12V11C11.5 10.7239 11.2761 10.5 11 10.5H10ZM11 11H10V12H11V11Z" fill="#0DCAF0"/>
<path d="M13 11.5C13 11.2239 13.2239 11 13.5 11H22.5C22.7761 11 23 11.2239 23 11.5C23 11.7761 22.7761 12 22.5 12H13.5C13.2239 12 13 11.7761 13 11.5Z" fill="#0DCAF0"/>
<path d="M13.5 15C13.2239 15 13 15.2239 13 15.5C13 15.7761 13.2239 16 13.5 16H22.5C22.7761 16 23 15.7761 23 15.5C23 15.2239 22.7761 15 22.5 15H13.5Z" fill="#0DCAF0"/>
<path d="M13.5 19C13.2239 19 13 19.2239 13 19.5C13 19.7761 13.2239 20 13.5 20H22.5C22.7761 20 23 19.7761 23 19.5C23 19.2239 22.7761 19 22.5 19H13.5Z" fill="#0DCAF0"/>
<path fill-rule="evenodd" clip-rule="evenodd" d="M9.5 15C9.5 14.7239 9.72386 14.5 10 14.5H11C11.2761 14.5 11.5 14.7239 11.5 15V16C11.5 16.2761 11.2761 16.5 11 16.5H10C9.72386 16.5 9.5 16.2761 9.5 16V15ZM10 15H11V16H10V15Z" fill="#0DCAF0"/>
<path fill-rule="evenodd" clip-rule="evenodd" d="M10 18.5C9.72386 18.5 9.5 18.7239 9.5 19V20C9.5 20.2761 9.72386 20.5 10 20.5H11C11.2761 20.5 11.5 20.2761 11.5 20V19C11.5 18.7239 11.2761 18.5 11 18.5H10ZM11 19H10V20H11V19Z" fill="#0DCAF0"/>
</svg>
