<svg width="32" height="32" viewBox="0 0 32 32" fill="none" xmlns="http://www.w3.org/2000/svg">
<rect width="32" height="32" rx="6" fill="#624BFF" fill-opacity="0.2"/>
<path d="M14.5 9C13.6717 9 13 9.67117 13 10.4998V11H9.5C8.67157 11 8 11.6716 8 12.5V20.5C8 21.3284 8.67157 22 9.5 22H22.5C23.3284 22 24 21.3284 24 20.5V12.5C24 11.6716 23.3284 11 22.5 11H19V10.4998C19 9.67117 18.3283 9 17.5 9H14.5ZM14.5 10H17.5C17.7763 10 18 10.2246 18 10.5006V11H14V10.4998C14 10.2238 14.2237 10 14.5 10ZM16.3865 16.9144L23 15.1508V20.5C23 20.7761 22.7761 21 22.5 21H9.5C9.22386 21 9 20.7761 9 20.5V15.1508L15.6135 16.9144C15.8667 16.9819 16.1333 16.9819 16.3865 16.9144ZM9.5 12H22.5C22.7761 12 23 12.2239 23 12.5V14.1159L16.1288 15.9482C16.0444 15.9707 15.9556 15.9707 15.8712 15.9482L9 14.1159V12.5C9 12.2239 9.22386 12 9.5 12Z" fill="#624BFF"/>
</svg>
