<svg width="16" height="17" viewBox="0 0 16 17" fill="none" xmlns="http://www.w3.org/2000/svg">
<g id="settings" clip-path="url(#clip0_527_1395)">
<path id="Vector" d="M8 10.5C9.10457 10.5 10 9.60457 10 8.5C10 7.39543 9.10457 6.5 8 6.5C6.89543 6.5 6 7.39543 6 8.5C6 9.60457 6.89543 10.5 8 10.5Z" stroke="#637381" stroke-linecap="round" stroke-linejoin="round"/>
<path id="Vector_2" d="M12.9333 10.4998C12.8445 10.7009 12.8181 10.924 12.8573 11.1402C12.8965 11.3565 12.9996 11.5561 13.1533 11.7132L13.1933 11.7532C13.3173 11.877 13.4156 12.0241 13.4827 12.1859C13.5498 12.3478 13.5843 12.5213 13.5843 12.6965C13.5843 12.8717 13.5498 13.0452 13.4827 13.2071C13.4156 13.369 13.3173 13.516 13.1933 13.6398C13.0695 13.7638 12.9224 13.8622 12.7605 13.9292C12.5987 13.9963 12.4252 14.0309 12.25 14.0309C12.0747 14.0309 11.9012 13.9963 11.7394 13.9292C11.5775 13.8622 11.4305 13.7638 11.3066 13.6398L11.2666 13.5998C11.1095 13.4461 10.9099 13.343 10.6937 13.3038C10.4774 13.2646 10.2544 13.2911 10.0533 13.3798C9.85611 13.4643 9.68795 13.6047 9.5695 13.7835C9.45105 13.9624 9.38748 14.172 9.38663 14.3865V14.4998C9.38663 14.8535 9.24615 15.1926 8.9961 15.4426C8.74605 15.6927 8.40691 15.8332 8.05329 15.8332C7.69967 15.8332 7.36053 15.6927 7.11048 15.4426C6.86043 15.1926 6.71996 14.8535 6.71996 14.4998V14.4398C6.7148 14.2192 6.64337 14.0052 6.51497 13.8256C6.38656 13.6461 6.20712 13.5094 5.99996 13.4332C5.79888 13.3444 5.57583 13.318 5.35957 13.3572C5.1433 13.3964 4.94375 13.4995 4.78663 13.6532L4.74663 13.6932C4.62279 13.8171 4.47574 13.9155 4.31388 13.9826C4.15202 14.0497 3.97851 14.0842 3.80329 14.0842C3.62807 14.0842 3.45457 14.0497 3.29271 13.9826C3.13084 13.9155 2.98379 13.8171 2.85996 13.6932C2.73599 13.5693 2.63765 13.4223 2.57055 13.2604C2.50345 13.0986 2.46891 12.9251 2.46891 12.7498C2.46891 12.5746 2.50345 12.4011 2.57055 12.2392C2.63765 12.0774 2.73599 11.9303 2.85996 11.8065L2.89996 11.7665C3.05365 11.6094 3.15675 11.4098 3.19596 11.1936C3.23517 10.9773 3.2087 10.7542 3.11996 10.5532C3.03545 10.356 2.89513 10.1878 2.71627 10.0694C2.53741 9.95092 2.32782 9.88736 2.11329 9.8865H1.99996C1.64634 9.8865 1.3072 9.74603 1.05715 9.49598C0.807102 9.24593 0.666626 8.90679 0.666626 8.55317C0.666626 8.19955 0.807102 7.86041 1.05715 7.61036C1.3072 7.36031 1.64634 7.21984 1.99996 7.21984H2.05996C2.28062 7.21468 2.49463 7.14325 2.67416 7.01484C2.85369 6.88644 2.99044 6.70699 3.06663 6.49984C3.15537 6.29876 3.18184 6.07571 3.14263 5.85944C3.10342 5.64318 3.00032 5.44362 2.84663 5.2865L2.80663 5.2465C2.68266 5.12267 2.58431 4.97562 2.51721 4.81376C2.45011 4.65189 2.41558 4.47839 2.41558 4.30317C2.41558 4.12795 2.45011 3.95445 2.51721 3.79258C2.58431 3.63072 2.68266 3.48367 2.80663 3.35984C2.93046 3.23587 3.07751 3.13752 3.23937 3.07042C3.40124 3.00333 3.57474 2.96879 3.74996 2.96879C3.92518 2.96879 4.09868 3.00333 4.26055 3.07042C4.42241 3.13752 4.56946 3.23587 4.69329 3.35984L4.73329 3.39984C4.89041 3.55353 5.08997 3.65663 5.30623 3.69584C5.5225 3.73505 5.74555 3.70858 5.94663 3.61984H5.99996C6.19714 3.53533 6.3653 3.39501 6.48375 3.21615C6.6022 3.03729 6.66577 2.82769 6.66663 2.61317V2.49984C6.66663 2.14622 6.8071 1.80708 7.05715 1.55703C7.3072 1.30698 7.64634 1.1665 7.99996 1.1665C8.35358 1.1665 8.69272 1.30698 8.94277 1.55703C9.19282 1.80708 9.33329 2.14622 9.33329 2.49984V2.55984C9.33415 2.77436 9.39771 2.98395 9.51616 3.16281C9.63461 3.34167 9.80278 3.482 9.99996 3.5665C10.201 3.65525 10.4241 3.68172 10.6404 3.64251C10.8566 3.60329 11.0562 3.50019 11.2133 3.3465L11.2533 3.3065C11.3771 3.18254 11.5242 3.08419 11.686 3.01709C11.8479 2.94999 12.0214 2.91545 12.1966 2.91545C12.3718 2.91545 12.5453 2.94999 12.7072 3.01709C12.8691 3.08419 13.0161 3.18254 13.14 3.3065C13.2639 3.43033 13.3623 3.57739 13.4294 3.73925C13.4965 3.90111 13.531 4.07462 13.531 4.24984C13.531 4.42506 13.4965 4.59856 13.4294 4.76042C13.3623 4.92229 13.2639 5.06934 13.14 5.19317L13.1 5.23317C12.9463 5.39029 12.8432 5.58985 12.804 5.80611C12.7647 6.02237 12.7912 6.24543 12.88 6.4465V6.49984C12.9645 6.69702 13.1048 6.86518 13.2836 6.98363C13.4625 7.10208 13.6721 7.16565 13.8866 7.1665H14C14.3536 7.1665 14.6927 7.30698 14.9428 7.55703C15.1928 7.80708 15.3333 8.14621 15.3333 8.49984C15.3333 8.85346 15.1928 9.1926 14.9428 9.44265C14.6927 9.69269 14.3536 9.83317 14 9.83317H13.94C13.7254 9.83403 13.5158 9.89759 13.337 10.016C13.1581 10.1345 13.0178 10.3027 12.9333 10.4998V10.4998Z" stroke="#637381" stroke-linecap="round" stroke-linejoin="round"/>
</g>
<defs>
<clipPath id="clip0_527_1395">
<rect width="16" height="16" fill="white" transform="translate(0 0.5)"/>
</clipPath>
</defs>
</svg>
