<svg width="16" height="16" viewBox="0 0 16 16" fill="none" xmlns="http://www.w3.org/2000/svg">
<g id="icon / sidebar / inactive / a_1. settings" clip-path="url(#clip0_16_747)">
<path id="Vector" opacity="0.4" d="M15.2311 9.86557L13.8999 9.09682C14.0343 8.37182 14.0343 7.62807 13.8999 6.90307L15.2311 6.13432C15.3843 6.04682 15.453 5.86557 15.403 5.69682C15.0561 4.58432 14.4655 3.57807 13.6936 2.74057C13.5749 2.61244 13.3811 2.58119 13.2311 2.66869L11.8999 3.43744C11.3405 2.95619 10.6968 2.58432 9.99989 2.34057V0.806191C9.99989 0.631191 9.87802 0.478066 9.70614 0.440566C8.55927 0.184316 7.38427 0.196816 6.29365 0.440566C6.12177 0.478066 5.9999 0.631191 5.9999 0.806191V2.34369C5.30615 2.59057 4.6624 2.96244 4.0999 3.44057L2.77177 2.67182C2.61865 2.58432 2.42802 2.61244 2.30927 2.74369C1.5374 3.57807 0.946773 4.58432 0.599898 5.69994C0.546773 5.86869 0.618648 6.04994 0.771773 6.13744L2.10302 6.90619C1.96865 7.63119 1.96865 8.37494 2.10302 9.09994L0.771773 9.86869C0.618648 9.95619 0.549898 10.1374 0.599898 10.3062C0.946773 11.4187 1.5374 12.4249 2.30927 13.2624C2.42802 13.3906 2.62177 13.4218 2.77177 13.3343L4.10302 12.5656C4.6624 13.0468 5.30615 13.4187 6.00302 13.6624V15.1999C6.00302 15.3749 6.1249 15.5281 6.29677 15.5656C7.44364 15.8218 8.61864 15.8093 9.70927 15.5656C9.88114 15.5281 10.003 15.3749 10.003 15.1999V13.6624C10.6968 13.4156 11.3405 13.0437 11.903 12.5656L13.2343 13.3343C13.3874 13.4218 13.578 13.3937 13.6968 13.2624C14.4686 12.4281 15.0593 11.4218 15.4061 10.3062C15.453 10.1343 15.3843 9.95307 15.2311 9.86557V9.86557ZM7.99989 10.4999C6.62177 10.4999 5.4999 9.37807 5.4999 7.99994C5.4999 6.62182 6.62177 5.49994 7.99989 5.49994C9.37802 5.49994 10.4999 6.62182 10.4999 7.99994C10.4999 9.37807 9.37802 10.4999 7.99989 10.4999Z" fill="#9FA2B4"/>
</g>
<defs>
<clipPath id="clip0_16_747">
<rect width="16" height="16" fill="white"/>
</clipPath>
</defs>
</svg>
