<svg width="54" height="24" viewBox="0 0 54 24" fill="none" xmlns="http://www.w3.org/2000/svg">
<g clip-path="url(#clip0_16_522)">
<rect width="54" height="24" rx="8" fill="#29CC97"/>
<path d="M13.7852 16V8.245H14.8522L19.3512 14.064H19.0652V8.245H20.3852V16H19.3182L14.8302 10.181H15.1052V16H13.7852ZM22.589 16V8.245H27.814V9.356H23.953V11.501H27.561V12.623H23.953V14.878H27.814V16H22.589ZM31.7547 16L29.0157 8.245H30.4897L32.6017 14.603H32.1617L34.4387 8.245H35.4947L37.6067 14.603H37.1997L39.4107 8.245H40.7967L38.0357 16H36.8587L34.8127 10.038H35.0547L32.9317 16H31.7547Z" fill="white"/>
</g>
<defs>
<clipPath id="clip0_16_522">
<rect width="54" height="24" fill="white"/>
</clipPath>
</defs>
</svg>
