<svg width="34" height="32" viewBox="0 0 34 32" fill="none" xmlns="http://www.w3.org/2000/svg">
<g id="carbon:overflow-menu-vertical">
<path id="Vector" d="M17 10C18.1736 10 19.125 9.10457 19.125 8C19.125 6.89543 18.1736 6 17 6C15.8264 6 14.875 6.89543 14.875 8C14.875 9.10457 15.8264 10 17 10Z" fill="#285D54"/>
<path id="Vector_2" d="M17 18C18.1736 18 19.125 17.1046 19.125 16C19.125 14.8954 18.1736 14 17 14C15.8264 14 14.875 14.8954 14.875 16C14.875 17.1046 15.8264 18 17 18Z" fill="#285D54"/>
<path id="Vector_3" d="M17 26C18.1736 26 19.125 25.1046 19.125 24C19.125 22.8954 18.1736 22 17 22C15.8264 22 14.875 22.8954 14.875 24C14.875 25.1046 15.8264 26 17 26Z" fill="#285D54"/>
</g>
</svg>
