<svg width="76" height="24" viewBox="0 0 76 24" fill="none" xmlns="http://www.w3.org/2000/svg">
<g clip-path="url(#clip0_16_540)">
<rect width="76" height="24" rx="8" fill="#F0F1F7"/>
<path d="M13.1129 16V8.245H15.9289C16.8162 8.245 17.5642 8.399 18.1729 8.707C18.7889 9.00767 19.2545 9.44767 19.5699 10.027C19.8852 10.599 20.0429 11.2957 20.0429 12.117C20.0429 12.931 19.8852 13.6277 19.5699 14.207C19.2545 14.7863 18.7889 15.23 18.1729 15.538C17.5642 15.846 16.8162 16 15.9289 16H13.1129ZM14.5319 14.823H15.8409C16.7795 14.823 17.4762 14.5993 17.9309 14.152C18.3855 13.7047 18.6129 13.0263 18.6129 12.117C18.6129 11.2003 18.3855 10.522 17.9309 10.082C17.4762 9.63467 16.7795 9.411 15.8409 9.411H14.5319V14.823ZM21.9918 16V8.245H27.2168V9.356H23.3558V11.501H26.9638V12.623H23.3558V14.878H27.2168V16H21.9918ZM29.0338 16V8.245H34.1488V9.356H30.4528V11.556H33.8958V12.667H30.4528V16H29.0338ZM34.3691 16L37.8781 8.245H39.0661L42.6191 16H41.1781L40.2321 13.822L40.8041 14.207H36.1511L36.7451 13.822L35.7991 16H34.3691ZM38.4611 9.763L36.9101 13.437L36.6241 13.096H40.3201L40.0891 13.437L38.5051 9.763H38.4611ZM47.1574 16.11C46.0501 16.11 45.2251 15.835 44.6824 15.285C44.1471 14.7277 43.8794 13.9063 43.8794 12.821V8.245H45.2984V12.81C45.2984 13.4993 45.4451 14.02 45.7384 14.372C46.0391 14.724 46.5121 14.9 47.1574 14.9C47.7734 14.9 48.2354 14.724 48.5434 14.372C48.8588 14.02 49.0164 13.4993 49.0164 12.81V8.245H50.4134V12.821C50.4134 13.9063 50.1384 14.7277 49.5884 15.285C49.0458 15.835 48.2354 16.11 47.1574 16.11ZM52.566 16V8.245H53.985V14.801H57.637V16H52.566ZM59.6186 16V9.411H57.0556V8.245H63.6006V9.411H61.0376V16H59.6186Z" fill="#9FA2B4"/>
</g>
<defs>
<clipPath id="clip0_16_540">
<rect width="76" height="24" fill="white"/>
</clipPath>
</defs>
</svg>
