<svg width="686" height="380" viewBox="0 0 686 380" fill="none" xmlns="http://www.w3.org/2000/svg">
<g clip-path="url(#clip0_16_585)">
<path d="M0 355H686" stroke="#EBEDF0"/>
<path d="M0 299H686" stroke="#EBEDF0"/>
<path d="M0 243H686" stroke="#EBEDF0"/>
<path d="M0 187H686" stroke="#EBEDF0"/>
<path d="M0 131H686" stroke="#EBEDF0"/>
<path d="M0 75H686" stroke="#EBEDF0"/>
<path d="M0 19H686" stroke="#EBEDF0"/>
<path d="M414 134L415 354.998" stroke="#EBEDF0"/>
<g clip-path="url(#clip1_16_585)">
<path d="M3.00195 377.09C2.20195 377.09 1.58862 376.78 1.16195 376.16C0.735286 375.54 0.521953 374.643 0.521953 373.47C0.521953 372.29 0.735286 371.393 1.16195 370.78C1.58862 370.167 2.20195 369.86 3.00195 369.86C3.80862 369.86 4.42195 370.167 4.84195 370.78C5.26862 371.393 5.48195 372.287 5.48195 373.46C5.48195 374.64 5.26862 375.54 4.84195 376.16C4.41529 376.78 3.80195 377.09 3.00195 377.09ZM3.00195 376.37C3.56195 376.37 3.97862 376.133 4.25195 375.66C4.52529 375.187 4.66195 374.453 4.66195 373.46C4.66195 372.46 4.52529 371.73 4.25195 371.27C3.97862 370.803 3.56195 370.57 3.00195 370.57C2.44862 370.57 2.03195 370.803 1.75195 371.27C1.47862 371.737 1.34195 372.467 1.34195 373.46C1.34195 374.453 1.47862 375.187 1.75195 375.66C2.03195 376.133 2.44862 376.37 3.00195 376.37Z" fill="#9FA2B4"/>
<path d="M27.272 377V376.29H28.932V370.66H29.372L27.432 371.87V371.04L29.162 369.95H29.762V376.29H31.322V377H27.272Z" fill="#9FA2B4"/>
<path d="M52.862 377V376.38L55.362 373.77C55.6886 373.43 55.932 373.107 56.092 372.8C56.2586 372.487 56.342 372.163 56.342 371.83C56.342 371.423 56.2153 371.117 55.962 370.91C55.7086 370.697 55.342 370.59 54.862 370.59C54.4886 370.59 54.142 370.657 53.822 370.79C53.5086 370.917 53.2053 371.12 52.912 371.4L52.612 370.75C52.8786 370.483 53.2186 370.27 53.632 370.11C54.0453 369.943 54.482 369.86 54.942 369.86C55.6553 369.86 56.2053 370.027 56.592 370.36C56.9786 370.687 57.172 371.153 57.172 371.76C57.172 372.207 57.062 372.633 56.842 373.04C56.6286 373.44 56.3153 373.853 55.902 374.28L53.692 376.52V376.29H57.472V377H52.862Z" fill="#9FA2B4"/>
<path d="M80.962 377.09C80.4886 377.09 80.0353 377.017 79.602 376.87C79.1686 376.723 78.8053 376.513 78.512 376.24L78.822 375.6C79.1486 375.867 79.4853 376.06 79.832 376.18C80.1786 376.3 80.552 376.36 80.952 376.36C81.4786 376.36 81.8786 376.25 82.152 376.03C82.4253 375.803 82.562 375.473 82.562 375.04C82.562 374.627 82.422 374.313 82.142 374.1C81.862 373.88 81.452 373.77 80.912 373.77H79.852V373.08H80.842C81.3086 373.08 81.6786 372.96 81.952 372.72C82.2253 372.48 82.362 372.153 82.362 371.74C82.362 371.367 82.2353 371.083 81.982 370.89C81.7353 370.69 81.3786 370.59 80.912 370.59C80.152 370.59 79.4953 370.86 78.942 371.4L78.632 370.75C78.9053 370.47 79.2486 370.253 79.662 370.1C80.0753 369.94 80.5086 369.86 80.962 369.86C81.6553 369.86 82.1986 370.02 82.592 370.34C82.9853 370.66 83.182 371.103 83.182 371.67C83.182 372.103 83.0586 372.477 82.812 372.79C82.5653 373.097 82.232 373.307 81.812 373.42V373.31C82.312 373.39 82.6986 373.59 82.972 373.91C83.2453 374.223 83.382 374.62 83.382 375.1C83.382 375.713 83.1653 376.2 82.732 376.56C82.3053 376.913 81.7153 377.09 80.962 377.09Z" fill="#9FA2B4"/>
<path d="M107.862 377V375.47H104.502V374.87L107.992 369.95H108.672V374.8H109.752V375.47H108.672V377H107.862ZM107.862 374.8V370.93H108.082L105.182 375.01V374.8H107.862Z" fill="#9FA2B4"/>
<path d="M133.132 377.09C132.825 377.09 132.525 377.057 132.232 376.99C131.939 376.923 131.662 376.827 131.402 376.7C131.149 376.573 130.925 376.42 130.732 376.24L131.042 375.6C131.369 375.86 131.702 376.053 132.042 376.18C132.382 376.3 132.745 376.36 133.132 376.36C133.639 376.36 134.035 376.223 134.322 375.95C134.609 375.677 134.752 375.317 134.752 374.87C134.752 374.41 134.615 374.033 134.342 373.74C134.069 373.447 133.689 373.3 133.202 373.3C132.855 373.3 132.545 373.37 132.272 373.51C131.999 373.643 131.762 373.853 131.562 374.14H130.962V369.95H135.142V370.65H131.762V373.46H131.542C131.722 373.18 131.969 372.967 132.282 372.82C132.602 372.667 132.962 372.59 133.362 372.59C133.815 372.59 134.205 372.683 134.532 372.87C134.865 373.057 135.122 373.317 135.302 373.65C135.482 373.983 135.572 374.373 135.572 374.82C135.572 375.267 135.472 375.663 135.272 376.01C135.079 376.35 134.799 376.617 134.432 376.81C134.072 376.997 133.639 377.09 133.132 377.09Z" fill="#9FA2B4"/>
<path d="M159.232 377.09C158.379 377.09 157.719 376.79 157.252 376.19C156.792 375.583 156.562 374.737 156.562 373.65C156.562 372.837 156.679 372.15 156.912 371.59C157.145 371.023 157.479 370.593 157.912 370.3C158.345 370.007 158.869 369.86 159.482 369.86C159.849 369.86 160.219 369.937 160.592 370.09C160.965 370.237 161.272 370.443 161.512 370.71L161.212 371.35C160.959 371.09 160.682 370.9 160.382 370.78C160.082 370.653 159.779 370.59 159.472 370.59C158.792 370.59 158.269 370.833 157.902 371.32C157.542 371.8 157.362 372.523 157.362 373.49V374.42H157.272C157.319 374.04 157.432 373.713 157.612 373.44C157.799 373.16 158.042 372.947 158.342 372.8C158.642 372.653 158.975 372.58 159.342 372.58C159.769 372.58 160.145 372.673 160.472 372.86C160.799 373.047 161.055 373.31 161.242 373.65C161.429 373.983 161.522 374.367 161.522 374.8C161.522 375.24 161.425 375.633 161.232 375.98C161.039 376.327 160.769 376.6 160.422 376.8C160.075 376.993 159.679 377.09 159.232 377.09ZM159.172 376.39C159.479 376.39 159.749 376.327 159.982 376.2C160.222 376.067 160.405 375.883 160.532 375.65C160.665 375.41 160.732 375.137 160.732 374.83C160.732 374.523 160.665 374.253 160.532 374.02C160.405 373.787 160.222 373.603 159.982 373.47C159.749 373.337 159.479 373.27 159.172 373.27C158.865 373.27 158.595 373.337 158.362 373.47C158.129 373.603 157.945 373.787 157.812 374.02C157.685 374.253 157.622 374.523 157.622 374.83C157.622 375.137 157.685 375.41 157.812 375.65C157.945 375.883 158.129 376.067 158.362 376.2C158.595 376.327 158.865 376.39 159.172 376.39Z" fill="#9FA2B4"/>
<path d="M183.132 377L186.602 370.3V370.66H182.662V369.95H187.352V370.57L184.042 377H183.132Z" fill="#9FA2B4"/>
<path d="M211.002 377.09C210.195 377.09 209.572 376.92 209.132 376.58C208.692 376.233 208.472 375.75 208.472 375.13C208.472 374.643 208.622 374.24 208.922 373.92C209.222 373.593 209.619 373.397 210.112 373.33V373.48C209.665 373.387 209.309 373.183 209.042 372.87C208.775 372.55 208.642 372.173 208.642 371.74C208.642 371.147 208.852 370.687 209.272 370.36C209.692 370.027 210.269 369.86 211.002 369.86C211.742 369.86 212.322 370.027 212.742 370.36C213.162 370.687 213.372 371.147 213.372 371.74C213.372 372.173 213.245 372.55 212.992 372.87C212.745 373.19 212.399 373.39 211.952 373.47V373.33C212.439 373.397 212.825 373.593 213.112 373.92C213.399 374.24 213.542 374.643 213.542 375.13C213.542 375.75 213.322 376.233 212.882 376.58C212.442 376.92 211.815 377.09 211.002 377.09ZM211.002 376.41C211.589 376.41 212.025 376.3 212.312 376.08C212.605 375.86 212.752 375.527 212.752 375.08C212.752 374.64 212.605 374.313 212.312 374.1C212.025 373.88 211.589 373.77 211.002 373.77C210.415 373.77 209.975 373.88 209.682 374.1C209.395 374.313 209.252 374.64 209.252 375.08C209.252 375.527 209.399 375.86 209.692 376.08C209.985 376.3 210.422 376.41 211.002 376.41ZM211.002 373.09C211.509 373.09 211.895 372.977 212.162 372.75C212.435 372.523 212.572 372.21 212.572 371.81C212.572 371.41 212.435 371.1 212.162 370.88C211.895 370.653 211.509 370.54 211.002 370.54C210.495 370.54 210.105 370.653 209.832 370.88C209.565 371.1 209.432 371.41 209.432 371.81C209.432 372.21 209.565 372.523 209.832 372.75C210.105 372.977 210.495 373.09 211.002 373.09Z" fill="#9FA2B4"/>
<path d="M236.532 377.09C236.165 377.09 235.795 377.013 235.422 376.86C235.049 376.7 234.739 376.493 234.492 376.24L234.802 375.59C235.055 375.85 235.332 376.043 235.632 376.17C235.932 376.297 236.235 376.36 236.542 376.36C237.215 376.36 237.732 376.12 238.092 375.64C238.459 375.153 238.642 374.427 238.642 373.46V372.53H238.742C238.702 372.903 238.585 373.23 238.392 373.51C238.205 373.79 237.962 374.003 237.662 374.15C237.369 374.297 237.039 374.37 236.672 374.37C236.245 374.37 235.865 374.277 235.532 374.09C235.205 373.903 234.949 373.64 234.762 373.3C234.575 372.96 234.482 372.577 234.482 372.15C234.482 371.703 234.579 371.31 234.772 370.97C234.972 370.623 235.242 370.353 235.582 370.16C235.929 369.96 236.325 369.86 236.772 369.86C237.632 369.86 238.292 370.16 238.752 370.76C239.219 371.36 239.452 372.207 239.452 373.3C239.452 374.107 239.335 374.793 239.102 375.36C238.869 375.927 238.535 376.357 238.102 376.65C237.669 376.943 237.145 377.09 236.532 377.09ZM236.842 373.68C237.149 373.68 237.419 373.613 237.652 373.48C237.885 373.347 238.065 373.163 238.192 372.93C238.325 372.697 238.392 372.427 238.392 372.12C238.392 371.807 238.325 371.533 238.192 371.3C238.065 371.067 237.885 370.883 237.652 370.75C237.419 370.617 237.149 370.55 236.842 370.55C236.535 370.55 236.262 370.617 236.022 370.75C235.789 370.883 235.605 371.067 235.472 371.3C235.345 371.533 235.282 371.807 235.282 372.12C235.282 372.427 235.345 372.697 235.472 372.93C235.605 373.163 235.789 373.347 236.022 373.48C236.262 373.613 236.535 373.68 236.842 373.68Z" fill="#9FA2B4"/>
<path d="M262.224 377V376.29H263.884V370.66H264.324L262.384 371.87V371.04L264.114 369.95H264.714V376.29H266.274V377H262.224ZM270.05 377.09C269.25 377.09 268.637 376.78 268.21 376.16C267.783 375.54 267.57 374.643 267.57 373.47C267.57 372.29 267.783 371.393 268.21 370.78C268.637 370.167 269.25 369.86 270.05 369.86C270.857 369.86 271.47 370.167 271.89 370.78C272.317 371.393 272.53 372.287 272.53 373.46C272.53 374.64 272.317 375.54 271.89 376.16C271.463 376.78 270.85 377.09 270.05 377.09ZM270.05 376.37C270.61 376.37 271.027 376.133 271.3 375.66C271.573 375.187 271.71 374.453 271.71 373.46C271.71 372.46 271.573 371.73 271.3 371.27C271.027 370.803 270.61 370.57 270.05 370.57C269.497 370.57 269.08 370.803 268.8 371.27C268.527 371.737 268.39 372.467 268.39 373.46C268.39 374.453 268.527 375.187 268.8 375.66C269.08 376.133 269.497 376.37 270.05 376.37Z" fill="#9FA2B4"/>
<path d="M296.224 377V376.29H297.884V370.66H298.324L296.384 371.87V371.04L298.114 369.95H298.714V376.29H300.274V377H296.224ZM302.32 377V376.29H303.98V370.66H304.42L302.48 371.87V371.04L304.21 369.95H304.81V376.29H306.37V377H302.32Z" fill="#9FA2B4"/>
<path d="M330.224 377V376.29H331.884V370.66H332.324L330.384 371.87V371.04L332.114 369.95H332.714V376.29H334.274V377H330.224ZM335.91 377V376.38L338.41 373.77C338.737 373.43 338.98 373.107 339.14 372.8C339.307 372.487 339.39 372.163 339.39 371.83C339.39 371.423 339.263 371.117 339.01 370.91C338.757 370.697 338.39 370.59 337.91 370.59C337.537 370.59 337.19 370.657 336.87 370.79C336.557 370.917 336.253 371.12 335.96 371.4L335.66 370.75C335.927 370.483 336.267 370.27 336.68 370.11C337.093 369.943 337.53 369.86 337.99 369.86C338.703 369.86 339.253 370.027 339.64 370.36C340.027 370.687 340.22 371.153 340.22 371.76C340.22 372.207 340.11 372.633 339.89 373.04C339.677 373.44 339.363 373.853 338.95 374.28L336.74 376.52V376.29H340.52V377H335.91Z" fill="#9FA2B4"/>
<path d="M364.224 377V376.29H365.884V370.66H366.324L364.384 371.87V371.04L366.114 369.95H366.714V376.29H368.274V377H364.224ZM372.01 377.09C371.537 377.09 371.083 377.017 370.65 376.87C370.217 376.723 369.853 376.513 369.56 376.24L369.87 375.6C370.197 375.867 370.533 376.06 370.88 376.18C371.227 376.3 371.6 376.36 372 376.36C372.527 376.36 372.927 376.25 373.2 376.03C373.473 375.803 373.61 375.473 373.61 375.04C373.61 374.627 373.47 374.313 373.19 374.1C372.91 373.88 372.5 373.77 371.96 373.77H370.9V373.08H371.89C372.357 373.08 372.727 372.96 373 372.72C373.273 372.48 373.41 372.153 373.41 371.74C373.41 371.367 373.283 371.083 373.03 370.89C372.783 370.69 372.427 370.59 371.96 370.59C371.2 370.59 370.543 370.86 369.99 371.4L369.68 370.75C369.953 370.47 370.297 370.253 370.71 370.1C371.123 369.94 371.557 369.86 372.01 369.86C372.703 369.86 373.247 370.02 373.64 370.34C374.033 370.66 374.23 371.103 374.23 371.67C374.23 372.103 374.107 372.477 373.86 372.79C373.613 373.097 373.28 373.307 372.86 373.42V373.31C373.36 373.39 373.747 373.59 374.02 373.91C374.293 374.223 374.43 374.62 374.43 375.1C374.43 375.713 374.213 376.2 373.78 376.56C373.353 376.913 372.763 377.09 372.01 377.09Z" fill="#9FA2B4"/>
<path d="M398.224 377V376.29H399.884V370.66H400.324L398.384 371.87V371.04L400.114 369.95H400.714V376.29H402.274V377H398.224ZM406.91 377V375.47H403.55V374.87L407.04 369.95H407.72V374.8H408.8V375.47H407.72V377H406.91ZM406.91 374.8V370.93H407.13L404.23 375.01V374.8H406.91Z" fill="#9FA2B4"/>
<path d="M432.224 377V376.29H433.884V370.66H434.324L432.384 371.87V371.04L434.114 369.95H434.714V376.29H436.274V377H432.224ZM440.18 377.09C439.873 377.09 439.573 377.057 439.28 376.99C438.987 376.923 438.71 376.827 438.45 376.7C438.197 376.573 437.973 376.42 437.78 376.24L438.09 375.6C438.417 375.86 438.75 376.053 439.09 376.18C439.43 376.3 439.793 376.36 440.18 376.36C440.687 376.36 441.083 376.223 441.37 375.95C441.657 375.677 441.8 375.317 441.8 374.87C441.8 374.41 441.663 374.033 441.39 373.74C441.117 373.447 440.737 373.3 440.25 373.3C439.903 373.3 439.593 373.37 439.32 373.51C439.047 373.643 438.81 373.853 438.61 374.14H438.01V369.95H442.19V370.65H438.81V373.46H438.59C438.77 373.18 439.017 372.967 439.33 372.82C439.65 372.667 440.01 372.59 440.41 372.59C440.863 372.59 441.253 372.683 441.58 372.87C441.913 373.057 442.17 373.317 442.35 373.65C442.53 373.983 442.62 374.373 442.62 374.82C442.62 375.267 442.52 375.663 442.32 376.01C442.127 376.35 441.847 376.617 441.48 376.81C441.12 376.997 440.687 377.09 440.18 377.09Z" fill="#9FA2B4"/>
<path d="M466.224 377V376.29H467.884V370.66H468.324L466.384 371.87V371.04L468.114 369.95H468.714V376.29H470.274V377H466.224ZM474.28 377.09C473.427 377.09 472.767 376.79 472.3 376.19C471.84 375.583 471.61 374.737 471.61 373.65C471.61 372.837 471.727 372.15 471.96 371.59C472.193 371.023 472.527 370.593 472.96 370.3C473.393 370.007 473.917 369.86 474.53 369.86C474.897 369.86 475.267 369.937 475.64 370.09C476.013 370.237 476.32 370.443 476.56 370.71L476.26 371.35C476.007 371.09 475.73 370.9 475.43 370.78C475.13 370.653 474.827 370.59 474.52 370.59C473.84 370.59 473.317 370.833 472.95 371.32C472.59 371.8 472.41 372.523 472.41 373.49V374.42H472.32C472.367 374.04 472.48 373.713 472.66 373.44C472.847 373.16 473.09 372.947 473.39 372.8C473.69 372.653 474.023 372.58 474.39 372.58C474.817 372.58 475.193 372.673 475.52 372.86C475.847 373.047 476.103 373.31 476.29 373.65C476.477 373.983 476.57 374.367 476.57 374.8C476.57 375.24 476.473 375.633 476.28 375.98C476.087 376.327 475.817 376.6 475.47 376.8C475.123 376.993 474.727 377.09 474.28 377.09ZM474.22 376.39C474.527 376.39 474.797 376.327 475.03 376.2C475.27 376.067 475.453 375.883 475.58 375.65C475.713 375.41 475.78 375.137 475.78 374.83C475.78 374.523 475.713 374.253 475.58 374.02C475.453 373.787 475.27 373.603 475.03 373.47C474.797 373.337 474.527 373.27 474.22 373.27C473.913 373.27 473.643 373.337 473.41 373.47C473.177 373.603 472.993 373.787 472.86 374.02C472.733 374.253 472.67 374.523 472.67 374.83C472.67 375.137 472.733 375.41 472.86 375.65C472.993 375.883 473.177 376.067 473.41 376.2C473.643 376.327 473.913 376.39 474.22 376.39Z" fill="#9FA2B4"/>
<path d="M500.224 377V376.29H501.884V370.66H502.324L500.384 371.87V371.04L502.114 369.95H502.714V376.29H504.274V377H500.224ZM506.18 377L509.65 370.3V370.66H505.71V369.95H510.4V370.57L507.09 377H506.18Z" fill="#9FA2B4"/>
<path d="M534.224 377V376.29H535.884V370.66H536.324L534.384 371.87V371.04L536.114 369.95H536.714V376.29H538.274V377H534.224ZM542.05 377.09C541.243 377.09 540.62 376.92 540.18 376.58C539.74 376.233 539.52 375.75 539.52 375.13C539.52 374.643 539.67 374.24 539.97 373.92C540.27 373.593 540.667 373.397 541.16 373.33V373.48C540.713 373.387 540.357 373.183 540.09 372.87C539.823 372.55 539.69 372.173 539.69 371.74C539.69 371.147 539.9 370.687 540.32 370.36C540.74 370.027 541.317 369.86 542.05 369.86C542.79 369.86 543.37 370.027 543.79 370.36C544.21 370.687 544.42 371.147 544.42 371.74C544.42 372.173 544.293 372.55 544.04 372.87C543.793 373.19 543.447 373.39 543 373.47V373.33C543.487 373.397 543.873 373.593 544.16 373.92C544.447 374.24 544.59 374.643 544.59 375.13C544.59 375.75 544.37 376.233 543.93 376.58C543.49 376.92 542.863 377.09 542.05 377.09ZM542.05 376.41C542.637 376.41 543.073 376.3 543.36 376.08C543.653 375.86 543.8 375.527 543.8 375.08C543.8 374.64 543.653 374.313 543.36 374.1C543.073 373.88 542.637 373.77 542.05 373.77C541.463 373.77 541.023 373.88 540.73 374.1C540.443 374.313 540.3 374.64 540.3 375.08C540.3 375.527 540.447 375.86 540.74 376.08C541.033 376.3 541.47 376.41 542.05 376.41ZM542.05 373.09C542.557 373.09 542.943 372.977 543.21 372.75C543.483 372.523 543.62 372.21 543.62 371.81C543.62 371.41 543.483 371.1 543.21 370.88C542.943 370.653 542.557 370.54 542.05 370.54C541.543 370.54 541.153 370.653 540.88 370.88C540.613 371.1 540.48 371.41 540.48 371.81C540.48 372.21 540.613 372.523 540.88 372.75C541.153 372.977 541.543 373.09 542.05 373.09Z" fill="#9FA2B4"/>
<path d="M568.224 377V376.29H569.884V370.66H570.324L568.384 371.87V371.04L570.114 369.95H570.714V376.29H572.274V377H568.224ZM575.58 377.09C575.213 377.09 574.843 377.013 574.47 376.86C574.097 376.7 573.787 376.493 573.54 376.24L573.85 375.59C574.103 375.85 574.38 376.043 574.68 376.17C574.98 376.297 575.283 376.36 575.59 376.36C576.263 376.36 576.78 376.12 577.14 375.64C577.507 375.153 577.69 374.427 577.69 373.46V372.53H577.79C577.75 372.903 577.633 373.23 577.44 373.51C577.253 373.79 577.01 374.003 576.71 374.15C576.417 374.297 576.087 374.37 575.72 374.37C575.293 374.37 574.913 374.277 574.58 374.09C574.253 373.903 573.997 373.64 573.81 373.3C573.623 372.96 573.53 372.577 573.53 372.15C573.53 371.703 573.627 371.31 573.82 370.97C574.02 370.623 574.29 370.353 574.63 370.16C574.977 369.96 575.373 369.86 575.82 369.86C576.68 369.86 577.34 370.16 577.8 370.76C578.267 371.36 578.5 372.207 578.5 373.3C578.5 374.107 578.383 374.793 578.15 375.36C577.917 375.927 577.583 376.357 577.15 376.65C576.717 376.943 576.193 377.09 575.58 377.09ZM575.89 373.68C576.197 373.68 576.467 373.613 576.7 373.48C576.933 373.347 577.113 373.163 577.24 372.93C577.373 372.697 577.44 372.427 577.44 372.12C577.44 371.807 577.373 371.533 577.24 371.3C577.113 371.067 576.933 370.883 576.7 370.75C576.467 370.617 576.197 370.55 575.89 370.55C575.583 370.55 575.31 370.617 575.07 370.75C574.837 370.883 574.653 371.067 574.52 371.3C574.393 371.533 574.33 371.807 574.33 372.12C574.33 372.427 574.393 372.697 574.52 372.93C574.653 373.163 574.837 373.347 575.07 373.48C575.31 373.613 575.583 373.68 575.89 373.68Z" fill="#9FA2B4"/>
<path d="M601.814 377V376.38L604.314 373.77C604.641 373.43 604.884 373.107 605.044 372.8C605.211 372.487 605.294 372.163 605.294 371.83C605.294 371.423 605.167 371.117 604.914 370.91C604.661 370.697 604.294 370.59 603.814 370.59C603.441 370.59 603.094 370.657 602.774 370.79C602.461 370.917 602.157 371.12 601.864 371.4L601.564 370.75C601.831 370.483 602.171 370.27 602.584 370.11C602.997 369.943 603.434 369.86 603.894 369.86C604.607 369.86 605.157 370.027 605.544 370.36C605.931 370.687 606.124 371.153 606.124 371.76C606.124 372.207 606.014 372.633 605.794 373.04C605.581 373.44 605.267 373.853 604.854 374.28L602.644 376.52V376.29H606.424V377H601.814ZM610.05 377.09C609.25 377.09 608.637 376.78 608.21 376.16C607.783 375.54 607.57 374.643 607.57 373.47C607.57 372.29 607.783 371.393 608.21 370.78C608.637 370.167 609.25 369.86 610.05 369.86C610.857 369.86 611.47 370.167 611.89 370.78C612.317 371.393 612.53 372.287 612.53 373.46C612.53 374.64 612.317 375.54 611.89 376.16C611.463 376.78 610.85 377.09 610.05 377.09ZM610.05 376.37C610.61 376.37 611.027 376.133 611.3 375.66C611.573 375.187 611.71 374.453 611.71 373.46C611.71 372.46 611.573 371.73 611.3 371.27C611.027 370.803 610.61 370.57 610.05 370.57C609.497 370.57 609.08 370.803 608.8 371.27C608.527 371.737 608.39 372.467 608.39 373.46C608.39 374.453 608.527 375.187 608.8 375.66C609.08 376.133 609.497 376.37 610.05 376.37Z" fill="#9FA2B4"/>
<path d="M635.814 377V376.38L638.314 373.77C638.641 373.43 638.884 373.107 639.044 372.8C639.211 372.487 639.294 372.163 639.294 371.83C639.294 371.423 639.167 371.117 638.914 370.91C638.661 370.697 638.294 370.59 637.814 370.59C637.441 370.59 637.094 370.657 636.774 370.79C636.461 370.917 636.157 371.12 635.864 371.4L635.564 370.75C635.831 370.483 636.171 370.27 636.584 370.11C636.997 369.943 637.434 369.86 637.894 369.86C638.607 369.86 639.157 370.027 639.544 370.36C639.931 370.687 640.124 371.153 640.124 371.76C640.124 372.207 640.014 372.633 639.794 373.04C639.581 373.44 639.267 373.853 638.854 374.28L636.644 376.52V376.29H640.424V377H635.814ZM642.32 377V376.29H643.98V370.66H644.42L642.48 371.87V371.04L644.21 369.95H644.81V376.29H646.37V377H642.32Z" fill="#9FA2B4"/>
<path d="M669.814 377V376.38L672.314 373.77C672.641 373.43 672.884 373.107 673.044 372.8C673.211 372.487 673.294 372.163 673.294 371.83C673.294 371.423 673.167 371.117 672.914 370.91C672.661 370.697 672.294 370.59 671.814 370.59C671.441 370.59 671.094 370.657 670.774 370.79C670.461 370.917 670.157 371.12 669.864 371.4L669.564 370.75C669.831 370.483 670.171 370.27 670.584 370.11C670.997 369.943 671.434 369.86 671.894 369.86C672.607 369.86 673.157 370.027 673.544 370.36C673.931 370.687 674.124 371.153 674.124 371.76C674.124 372.207 674.014 372.633 673.794 373.04C673.581 373.44 673.267 373.853 672.854 374.28L670.644 376.52V376.29H674.424V377H669.814ZM675.91 377V376.38L678.41 373.77C678.737 373.43 678.98 373.107 679.14 372.8C679.307 372.487 679.39 372.163 679.39 371.83C679.39 371.423 679.263 371.117 679.01 370.91C678.757 370.697 678.39 370.59 677.91 370.59C677.537 370.59 677.19 370.657 676.87 370.79C676.557 370.917 676.253 371.12 675.96 371.4L675.66 370.75C675.927 370.483 676.267 370.27 676.68 370.11C677.093 369.943 677.53 369.86 677.99 369.86C678.703 369.86 679.253 370.027 679.64 370.36C680.027 370.687 680.22 371.153 680.22 371.76C680.22 372.207 680.11 372.633 679.89 373.04C679.677 373.44 679.363 373.853 678.95 374.28L676.74 376.52V376.29H680.52V377H675.91Z" fill="#9FA2B4"/>
</g>
<path d="M683.004 346.09C682.204 346.09 681.591 345.78 681.164 345.16C680.737 344.54 680.524 343.643 680.524 342.47C680.524 341.29 680.737 340.393 681.164 339.78C681.591 339.167 682.204 338.86 683.004 338.86C683.811 338.86 684.424 339.167 684.844 339.78C685.271 340.393 685.484 341.287 685.484 342.46C685.484 343.64 685.271 344.54 684.844 345.16C684.417 345.78 683.804 346.09 683.004 346.09ZM683.004 345.37C683.564 345.37 683.981 345.133 684.254 344.66C684.527 344.187 684.664 343.453 684.664 342.46C684.664 341.46 684.527 340.73 684.254 340.27C683.981 339.803 683.564 339.57 683.004 339.57C682.451 339.57 682.034 339.803 681.754 340.27C681.481 340.737 681.344 341.467 681.344 342.46C681.344 343.453 681.481 344.187 681.754 344.66C682.034 345.133 682.451 345.37 683.004 345.37Z" fill="#9FA2B4"/>
<path d="M675.178 290V289.29H676.838V283.66H677.278L675.338 284.87V284.04L677.068 282.95H677.668V289.29H679.228V290H675.178ZM683.004 290.09C682.204 290.09 681.591 289.78 681.164 289.16C680.737 288.54 680.524 287.643 680.524 286.47C680.524 285.29 680.737 284.393 681.164 283.78C681.591 283.167 682.204 282.86 683.004 282.86C683.811 282.86 684.424 283.167 684.844 283.78C685.271 284.393 685.484 285.287 685.484 286.46C685.484 287.64 685.271 288.54 684.844 289.16C684.417 289.78 683.804 290.09 683.004 290.09ZM683.004 289.37C683.564 289.37 683.981 289.133 684.254 288.66C684.527 288.187 684.664 287.453 684.664 286.46C684.664 285.46 684.527 284.73 684.254 284.27C683.981 283.803 683.564 283.57 683.004 283.57C682.451 283.57 682.034 283.803 681.754 284.27C681.481 284.737 681.344 285.467 681.344 286.46C681.344 287.453 681.481 288.187 681.754 288.66C682.034 289.133 682.451 289.37 683.004 289.37Z" fill="#9FA2B4"/>
<path d="M674.768 234V233.38L677.268 230.77C677.594 230.43 677.838 230.107 677.998 229.8C678.164 229.487 678.248 229.163 678.248 228.83C678.248 228.423 678.121 228.117 677.868 227.91C677.614 227.697 677.248 227.59 676.768 227.59C676.394 227.59 676.048 227.657 675.728 227.79C675.414 227.917 675.111 228.12 674.818 228.4L674.518 227.75C674.784 227.483 675.124 227.27 675.538 227.11C675.951 226.943 676.388 226.86 676.848 226.86C677.561 226.86 678.111 227.027 678.498 227.36C678.884 227.687 679.078 228.153 679.078 228.76C679.078 229.207 678.968 229.633 678.748 230.04C678.534 230.44 678.221 230.853 677.808 231.28L675.598 233.52V233.29H679.378V234H674.768ZM683.004 234.09C682.204 234.09 681.591 233.78 681.164 233.16C680.737 232.54 680.524 231.643 680.524 230.47C680.524 229.29 680.737 228.393 681.164 227.78C681.591 227.167 682.204 226.86 683.004 226.86C683.811 226.86 684.424 227.167 684.844 227.78C685.271 228.393 685.484 229.287 685.484 230.46C685.484 231.64 685.271 232.54 684.844 233.16C684.417 233.78 683.804 234.09 683.004 234.09ZM683.004 233.37C683.564 233.37 683.981 233.133 684.254 232.66C684.527 232.187 684.664 231.453 684.664 230.46C684.664 229.46 684.527 228.73 684.254 228.27C683.981 227.803 683.564 227.57 683.004 227.57C682.451 227.57 682.034 227.803 681.754 228.27C681.481 228.737 681.344 229.467 681.344 230.46C681.344 231.453 681.481 232.187 681.754 232.66C682.034 233.133 682.451 233.37 683.004 233.37Z" fill="#9FA2B4"/>
<path d="M676.868 178.09C676.394 178.09 675.941 178.017 675.508 177.87C675.074 177.723 674.711 177.513 674.418 177.24L674.728 176.6C675.054 176.867 675.391 177.06 675.738 177.18C676.084 177.3 676.458 177.36 676.858 177.36C677.384 177.36 677.784 177.25 678.058 177.03C678.331 176.803 678.468 176.473 678.468 176.04C678.468 175.627 678.328 175.313 678.048 175.1C677.768 174.88 677.358 174.77 676.818 174.77H675.758V174.08H676.748C677.214 174.08 677.584 173.96 677.858 173.72C678.131 173.48 678.268 173.153 678.268 172.74C678.268 172.367 678.141 172.083 677.888 171.89C677.641 171.69 677.284 171.59 676.818 171.59C676.058 171.59 675.401 171.86 674.848 172.4L674.538 171.75C674.811 171.47 675.154 171.253 675.568 171.1C675.981 170.94 676.414 170.86 676.868 170.86C677.561 170.86 678.104 171.02 678.498 171.34C678.891 171.66 679.088 172.103 679.088 172.67C679.088 173.103 678.964 173.477 678.718 173.79C678.471 174.097 678.138 174.307 677.718 174.42V174.31C678.218 174.39 678.604 174.59 678.878 174.91C679.151 175.223 679.288 175.62 679.288 176.1C679.288 176.713 679.071 177.2 678.638 177.56C678.211 177.913 677.621 178.09 676.868 178.09ZM683.004 178.09C682.204 178.09 681.591 177.78 681.164 177.16C680.737 176.54 680.524 175.643 680.524 174.47C680.524 173.29 680.737 172.393 681.164 171.78C681.591 171.167 682.204 170.86 683.004 170.86C683.811 170.86 684.424 171.167 684.844 171.78C685.271 172.393 685.484 173.287 685.484 174.46C685.484 175.64 685.271 176.54 684.844 177.16C684.417 177.78 683.804 178.09 683.004 178.09ZM683.004 177.37C683.564 177.37 683.981 177.133 684.254 176.66C684.527 176.187 684.664 175.453 684.664 174.46C684.664 173.46 684.527 172.73 684.254 172.27C683.981 171.803 683.564 171.57 683.004 171.57C682.451 171.57 682.034 171.803 681.754 172.27C681.481 172.737 681.344 173.467 681.344 174.46C681.344 175.453 681.481 176.187 681.754 176.66C682.034 177.133 682.451 177.37 683.004 177.37Z" fill="#9FA2B4"/>
<path d="M677.768 122V120.47H674.408V119.87L677.898 114.95H678.578V119.8H679.658V120.47H678.578V122H677.768ZM677.768 119.8V115.93H677.988L675.088 120.01V119.8H677.768ZM683.004 122.09C682.204 122.09 681.591 121.78 681.164 121.16C680.737 120.54 680.524 119.643 680.524 118.47C680.524 117.29 680.737 116.393 681.164 115.78C681.591 115.167 682.204 114.86 683.004 114.86C683.811 114.86 684.424 115.167 684.844 115.78C685.271 116.393 685.484 117.287 685.484 118.46C685.484 119.64 685.271 120.54 684.844 121.16C684.417 121.78 683.804 122.09 683.004 122.09ZM683.004 121.37C683.564 121.37 683.981 121.133 684.254 120.66C684.527 120.187 684.664 119.453 684.664 118.46C684.664 117.46 684.527 116.73 684.254 116.27C683.981 115.803 683.564 115.57 683.004 115.57C682.451 115.57 682.034 115.803 681.754 116.27C681.481 116.737 681.344 117.467 681.344 118.46C681.344 119.453 681.481 120.187 681.754 120.66C682.034 121.133 682.451 121.37 683.004 121.37Z" fill="#9FA2B4"/>
<path d="M677.038 66.09C676.731 66.09 676.431 66.0567 676.138 65.99C675.844 65.9233 675.568 65.8267 675.308 65.7C675.054 65.5733 674.831 65.42 674.638 65.24L674.948 64.6C675.274 64.86 675.608 65.0533 675.948 65.18C676.288 65.3 676.651 65.36 677.038 65.36C677.544 65.36 677.941 65.2233 678.228 64.95C678.514 64.6767 678.658 64.3167 678.658 63.87C678.658 63.41 678.521 63.0333 678.248 62.74C677.974 62.4467 677.594 62.3 677.108 62.3C676.761 62.3 676.451 62.37 676.178 62.51C675.904 62.6433 675.668 62.8533 675.468 63.14H674.868V58.95H679.048V59.65H675.668V62.46H675.448C675.628 62.18 675.874 61.9667 676.188 61.82C676.508 61.6667 676.868 61.59 677.268 61.59C677.721 61.59 678.111 61.6833 678.438 61.87C678.771 62.0567 679.028 62.3167 679.208 62.65C679.388 62.9833 679.478 63.3733 679.478 63.82C679.478 64.2667 679.378 64.6633 679.178 65.01C678.984 65.35 678.704 65.6167 678.338 65.81C677.978 65.9967 677.544 66.09 677.038 66.09ZM683.004 66.09C682.204 66.09 681.591 65.78 681.164 65.16C680.737 64.54 680.524 63.6433 680.524 62.47C680.524 61.29 680.737 60.3933 681.164 59.78C681.591 59.1667 682.204 58.86 683.004 58.86C683.811 58.86 684.424 59.1667 684.844 59.78C685.271 60.3933 685.484 61.2867 685.484 62.46C685.484 63.64 685.271 64.54 684.844 65.16C684.417 65.78 683.804 66.09 683.004 66.09ZM683.004 65.37C683.564 65.37 683.981 65.1333 684.254 64.66C684.527 64.1867 684.664 63.4533 684.664 62.46C684.664 61.46 684.527 60.73 684.254 60.27C683.981 59.8033 683.564 59.57 683.004 59.57C682.451 59.57 682.034 59.8033 681.754 60.27C681.481 60.7367 681.344 61.4667 681.344 62.46C681.344 63.4533 681.481 64.1867 681.754 64.66C682.034 65.1333 682.451 65.37 683.004 65.37Z" fill="#9FA2B4"/>
<path d="M677.138 10.09C676.284 10.09 675.624 9.79 675.158 9.19C674.698 8.58333 674.468 7.73667 674.468 6.65C674.468 5.83667 674.584 5.15 674.818 4.59C675.051 4.02333 675.384 3.59333 675.818 3.3C676.251 3.00667 676.774 2.86 677.388 2.86C677.754 2.86 678.124 2.93667 678.498 3.09C678.871 3.23667 679.178 3.44333 679.418 3.71L679.118 4.35C678.864 4.09 678.588 3.9 678.288 3.78C677.988 3.65333 677.684 3.59 677.378 3.59C676.698 3.59 676.174 3.83333 675.808 4.32C675.448 4.8 675.268 5.52333 675.268 6.49V7.42H675.178C675.224 7.04 675.338 6.71333 675.518 6.44C675.704 6.16 675.948 5.94667 676.248 5.8C676.548 5.65333 676.881 5.58 677.248 5.58C677.674 5.58 678.051 5.67333 678.378 5.86C678.704 6.04667 678.961 6.31 679.148 6.65C679.334 6.98333 679.428 7.36667 679.428 7.8C679.428 8.24 679.331 8.63333 679.138 8.98C678.944 9.32667 678.674 9.6 678.328 9.8C677.981 9.99333 677.584 10.09 677.138 10.09ZM677.078 9.39C677.384 9.39 677.654 9.32667 677.888 9.2C678.128 9.06667 678.311 8.88333 678.438 8.65C678.571 8.41 678.638 8.13667 678.638 7.83C678.638 7.52333 678.571 7.25333 678.438 7.02C678.311 6.78667 678.128 6.60333 677.888 6.47C677.654 6.33667 677.384 6.27 677.078 6.27C676.771 6.27 676.501 6.33667 676.268 6.47C676.034 6.60333 675.851 6.78667 675.718 7.02C675.591 7.25333 675.528 7.52333 675.528 7.83C675.528 8.13667 675.591 8.41 675.718 8.65C675.851 8.88333 676.034 9.06667 676.268 9.2C676.501 9.32667 676.771 9.39 677.078 9.39ZM683.004 10.09C682.204 10.09 681.591 9.78 681.164 9.16C680.737 8.54 680.524 7.64333 680.524 6.47C680.524 5.29 680.737 4.39333 681.164 3.78C681.591 3.16667 682.204 2.86 683.004 2.86C683.811 2.86 684.424 3.16667 684.844 3.78C685.271 4.39333 685.484 5.28667 685.484 6.46C685.484 7.64 685.271 8.54 684.844 9.16C684.417 9.78 683.804 10.09 683.004 10.09ZM683.004 9.37C683.564 9.37 683.981 9.13333 684.254 8.66C684.527 8.18667 684.664 7.45333 684.664 6.46C684.664 5.46 684.527 4.73 684.254 4.27C683.981 3.80333 683.564 3.57 683.004 3.57C682.451 3.57 682.034 3.80333 681.754 4.27C681.481 4.73667 681.344 5.46667 681.344 6.46C681.344 7.45333 681.481 8.18667 681.754 8.66C682.034 9.13333 682.451 9.37 683.004 9.37Z" fill="#9FA2B4"/>
<mask id="mask0_16_585" style="mask-type:alpha" maskUnits="userSpaceOnUse" x="0" y="19" width="576" height="336">
<rect y="19" width="576" height="336" fill="#C4C4C4"/>
</mask>
<g mask="url(#mask0_16_585)">
<path opacity="0.1" d="M94.4766 188.886C47.5587 187.226 2.94287 265.21 -9.13159 297.727V400.5H595.719V144C539.744 141.5 522.042 85.1051 479.134 85.1051C436.227 85.1051 397.488 166.745 375.639 209.641C357.7 247.832 334.816 255.996 325.616 255.304C282.838 256.964 250.295 171.589 239.37 128.693C229.711 80.5386 218.836 70.5764 213.496 70.5765C204.538 70.5455 191.072 84.6905 177.273 132.844C163.473 180.998 141.624 194.42 132.425 195.112C119.557 196.08 104.251 188.886 94.4766 188.886Z" fill="url(#paint0_linear_16_585)"/>
<path d="M-9.13159 173C67.3389 135.5 67.816 226.449 120.303 226.449C172.79 226.449 157.999 171.689 218.597 162.844C279.196 154 317.369 261 366.516 261C415.663 261 438.566 118 455.744 118C472.922 118 463.378 190.5 505.845 190.5C548.312 190.5 574.835 142.66 617.5 141" stroke="#DFE0EB" stroke-width="2" stroke-linejoin="round"/>
<path d="M-9.13159 297.727C2.88859 265.21 47.3038 187.226 94.0108 188.886C103.741 188.886 118.979 196.08 131.789 195.112C140.947 194.42 162.698 180.998 176.435 132.844C190.172 84.6905 203.577 70.5455 212.496 70.5765C217.811 70.5764 228.637 80.5386 238.253 128.693C249.128 171.589 281.526 256.964 324.111 255.304C333.27 255.996 356.051 247.832 373.909 209.641C395.66 166.745 434.225 85.1051 476.94 85.1051C519.654 85.1051 537.276 141.5 593 144" stroke="#3751FF" stroke-width="2" stroke-linejoin="round"/>
<circle opacity="0.16" cx="414" cy="134" r="13" stroke="#3751FF" stroke-width="2"/>
<g filter="url(#filter0_d_16_585)">
<circle cx="414" cy="134" r="7" fill="white"/>
<circle cx="414" cy="134" r="5" stroke="#3751FF" stroke-width="4"/>
</g>
<g filter="url(#filter1_d_16_585)">
<mask id="path-46-outside-1_16_585" maskUnits="userSpaceOnUse" x="381" y="72" width="66" height="38" fill="black">
<rect fill="white" x="381" y="72" width="66" height="38"/>
<path fill-rule="evenodd" clip-rule="evenodd" d="M386 73H442C444.209 73 446 74.7908 446 77V99C446 101.209 444.209 103 442 103L421 103L414.26 108.777C414.111 108.905 413.889 108.905 413.74 108.777L407 103L386 103C383.791 103 382 101.209 382 99V77C382 74.7908 383.791 73 386 73Z"/>
</mask>
<path fill-rule="evenodd" clip-rule="evenodd" d="M386 73H442C444.209 73 446 74.7908 446 77V99C446 101.209 444.209 103 442 103L421 103L414.26 108.777C414.111 108.905 413.889 108.905 413.74 108.777L407 103L386 103C383.791 103 382 101.209 382 99V77C382 74.7908 383.791 73 386 73Z" fill="white"/>
<path d="M442 103L442 103.5H442V103ZM421 103L421 102.5L420.815 102.5L420.675 102.62L421 103ZM414.26 108.777L413.935 108.397L413.935 108.397L414.26 108.777ZM413.74 108.777L414.065 108.397L414.065 108.397L413.74 108.777ZM407 103L407.325 102.62L407.185 102.5L407 102.5L407 103ZM386 103L386 103.5H386L386 103ZM442 72.5H386V73.5H442V72.5ZM446.5 77C446.5 74.5147 444.485 72.5 442 72.5V73.5C443.933 73.5 445.5 75.067 445.5 77H446.5ZM446.5 99V77H445.5V99H446.5ZM442 103.5C444.485 103.5 446.5 101.485 446.5 99H445.5C445.5 100.933 443.933 102.5 442 102.5V103.5ZM421 103.5L442 103.5L442 102.5L421 102.5L421 103.5ZM420.675 102.62L413.935 108.397L414.586 109.156L421.325 103.38L420.675 102.62ZM413.935 108.397C413.972 108.365 414.028 108.365 414.065 108.397L413.414 109.156C413.751 109.445 414.249 109.445 414.586 109.156L413.935 108.397ZM414.065 108.397L407.325 102.62L406.675 103.38L413.414 109.156L414.065 108.397ZM386 103.5L407 103.5L407 102.5L386 102.5L386 103.5ZM381.5 99C381.5 101.485 383.515 103.5 386 103.5V102.5C384.067 102.5 382.5 100.933 382.5 99H381.5ZM381.5 77V99H382.5V77H381.5ZM386 72.5C383.515 72.5 381.5 74.5147 381.5 77H382.5C382.5 75.067 384.067 73.5 386 73.5V72.5Z" fill="#DFE0EB" mask="url(#path-46-outside-1_16_585)"/>
</g>
<path d="M409.507 93.126C408.835 93.126 408.191 93.028 407.575 92.832C406.959 92.6266 406.446 92.3373 406.035 91.964L406.539 90.858C406.997 91.2126 407.463 91.474 407.939 91.642C408.415 91.81 408.924 91.894 409.465 91.894C410.156 91.894 410.679 91.7493 411.033 91.46C411.397 91.1706 411.579 90.7553 411.579 90.214C411.579 89.682 411.397 89.2806 411.033 89.01C410.679 88.73 410.151 88.59 409.451 88.59H407.925V87.414H409.339C409.937 87.414 410.413 87.2646 410.767 86.966C411.122 86.658 411.299 86.2426 411.299 85.72C411.299 85.244 411.136 84.88 410.809 84.628C410.483 84.3666 410.016 84.236 409.409 84.236C408.383 84.236 407.482 84.5953 406.707 85.314L406.217 84.208C406.6 83.8253 407.085 83.5313 407.673 83.326C408.261 83.1113 408.877 83.004 409.521 83.004C410.511 83.004 411.29 83.2326 411.859 83.69C412.429 84.138 412.713 84.7633 412.713 85.566C412.713 86.1726 412.541 86.6906 412.195 87.12C411.859 87.5493 411.397 87.834 410.809 87.974V87.82C411.509 87.932 412.046 88.212 412.419 88.66C412.802 89.0986 412.993 89.6493 412.993 90.312C412.993 91.1893 412.681 91.88 412.055 92.384C411.439 92.8786 410.59 93.126 409.507 93.126ZM418.2 93.126C417.061 93.126 416.175 92.8833 415.54 92.398C414.905 91.9126 414.588 91.236 414.588 90.368C414.588 89.6773 414.798 89.108 415.218 88.66C415.638 88.2026 416.189 87.9273 416.87 87.834V88.086C416.254 87.9553 415.759 87.6706 415.386 87.232C415.022 86.7933 414.84 86.2613 414.84 85.636C414.84 84.8146 415.139 84.1706 415.736 83.704C416.333 83.2373 417.155 83.004 418.2 83.004C419.255 83.004 420.081 83.2373 420.678 83.704C421.275 84.1706 421.574 84.8146 421.574 85.636C421.574 86.2613 421.397 86.798 421.042 87.246C420.697 87.6846 420.221 87.96 419.614 88.072V87.834C420.286 87.9273 420.823 88.2026 421.224 88.66C421.625 89.108 421.826 89.6773 421.826 90.368C421.826 91.236 421.509 91.9126 420.874 92.398C420.239 92.8833 419.348 93.126 418.2 93.126ZM418.2 91.978C418.956 91.978 419.521 91.838 419.894 91.558C420.267 91.2686 420.454 90.8393 420.454 90.27C420.454 89.7006 420.267 89.276 419.894 88.996C419.521 88.716 418.956 88.576 418.2 88.576C417.444 88.576 416.879 88.716 416.506 88.996C416.133 89.276 415.946 89.7006 415.946 90.27C415.946 90.8393 416.133 91.2686 416.506 91.558C416.889 91.838 417.453 91.978 418.2 91.978ZM418.2 87.428C418.853 87.428 419.348 87.2833 419.684 86.994C420.029 86.6953 420.202 86.2893 420.202 85.776C420.202 85.272 420.029 84.8753 419.684 84.586C419.348 84.2966 418.853 84.152 418.2 84.152C417.556 84.152 417.061 84.2966 416.716 84.586C416.371 84.8753 416.198 85.272 416.198 85.776C416.198 86.2893 416.371 86.6953 416.716 86.994C417.061 87.2833 417.556 87.428 418.2 87.428Z" fill="#252733"/>
</g>
</g>
<defs>
<filter id="filter0_d_16_585" x="405" y="126" width="18" height="18" filterUnits="userSpaceOnUse" color-interpolation-filters="sRGB">
<feFlood flood-opacity="0" result="BackgroundImageFix"/>
<feColorMatrix in="SourceAlpha" type="matrix" values="0 0 0 0 0 0 0 0 0 0 0 0 0 0 0 0 0 0 127 0" result="hardAlpha"/>
<feOffset dy="1"/>
<feGaussianBlur stdDeviation="1"/>
<feColorMatrix type="matrix" values="0 0 0 0 0.215686 0 0 0 0 0.317647 0 0 0 0 1 0 0 0 0.2 0"/>
<feBlend mode="normal" in2="BackgroundImageFix" result="effect1_dropShadow_16_585"/>
<feBlend mode="normal" in="SourceGraphic" in2="effect1_dropShadow_16_585" result="shape"/>
</filter>
<filter id="filter1_d_16_585" x="377.5" y="69.5" width="73" height="44.8732" filterUnits="userSpaceOnUse" color-interpolation-filters="sRGB">
<feFlood flood-opacity="0" result="BackgroundImageFix"/>
<feColorMatrix in="SourceAlpha" type="matrix" values="0 0 0 0 0 0 0 0 0 0 0 0 0 0 0 0 0 0 127 0" result="hardAlpha"/>
<feOffset dy="1"/>
<feGaussianBlur stdDeviation="2"/>
<feColorMatrix type="matrix" values="0 0 0 0 0 0 0 0 0 0 0 0 0 0 0 0 0 0 0.08 0"/>
<feBlend mode="normal" in2="BackgroundImageFix" result="effect1_dropShadow_16_585"/>
<feBlend mode="normal" in="SourceGraphic" in2="effect1_dropShadow_16_585" result="shape"/>
</filter>
<linearGradient id="paint0_linear_16_585" x1="-0.394192" y1="244.5" x2="576.103" y2="244.978" gradientUnits="userSpaceOnUse">
<stop stop-color="#3751FF"/>
<stop offset="1" stop-color="#3751FF" stop-opacity="0"/>
</linearGradient>
<clipPath id="clip0_16_585">
<rect width="686" height="380" fill="white"/>
</clipPath>
<clipPath id="clip1_16_585">
<rect width="716" height="13" fill="white" transform="translate(0 367)"/>
</clipPath>
</defs>
</svg>
