<svg width="59" height="53" viewBox="0 0 59 53" fill="none" xmlns="http://www.w3.org/2000/svg">
<rect width="53" height="53" fill="#FF6300"/>
<path d="M8.59542 16.0214V10.3257H35.4305V16.0214H25.4271V43H18.5987V16.0214H8.59542ZM42.1592 43.4148C41.1062 43.4148 40.2021 43.0425 39.4469 42.298C38.7024 41.5428 38.3301 40.6388 38.3301 39.5858C38.3301 38.5434 38.7024 37.65 39.4469 36.9055C40.2021 36.1609 41.1062 35.7887 42.1592 35.7887C43.1802 35.7887 44.0737 36.1609 44.8395 36.9055C45.6053 37.65 45.9882 38.5434 45.9882 39.5858C45.9882 40.2878 45.8074 40.9313 45.4457 41.5163C45.0947 42.0906 44.6321 42.5533 44.0577 42.9043C43.4834 43.2446 42.8505 43.4148 42.1592 43.4148Z" fill="white"/>
</svg>
