<svg width="18" height="19" viewBox="0 0 18 19" fill="none" xmlns="http://www.w3.org/2000/svg">
<path d="M8.00002 19C9.10377 19 9.99908 18.1047 9.99908 17H6.00096C6.00096 18.1047 6.89627 19 8.00002 19ZM14.731 14.3216C14.1272 13.6728 12.9975 12.6969 12.9975 9.5C12.9975 7.07188 11.295 5.12813 8.9994 4.65125V4C8.9994 3.44781 8.5519 3 8.00002 3C7.44815 3 7.00065 3.44781 7.00065 4V4.65125C4.70502 5.12813 3.00252 7.07188 3.00252 9.5C3.00252 12.6969 1.87283 13.6728 1.26908 14.3216C1.08158 14.5231 0.998459 14.7641 1.00002 15C1.00346 15.5125 1.40565 16 2.00315 16H13.9969C14.5944 16 14.9969 15.5125 15 15C15.0016 14.7641 14.9185 14.5228 14.731 14.3216V14.3216Z" fill="#C5C7CD"/>
<circle cx="13" cy="5" r="3.75" fill="#3751FF" stroke="#F7F8FC" stroke-width="1.5"/>
</svg>
