<svg width="39" height="32" viewBox="0 0 39 32" fill="none" xmlns="http://www.w3.org/2000/svg">
<g id="carbon:send-alt-filled">
<path id="Vector" d="M33.7718 4.29001C33.6073 4.15569 33.3995 4.06268 33.1728 4.02194C32.9461 3.9812 32.7099 3.99441 32.4921 4.06001L5.67959 12.06C5.44835 12.132 5.24927 12.26 5.10879 12.427C4.96831 12.594 4.89307 12.7921 4.89307 12.995C4.89307 13.1979 4.96831 13.3961 5.10879 13.5631C5.24927 13.7301 5.44835 13.858 5.67959 13.93L16.1487 17.36L23.8755 11L25.594 12.41L17.8305 18.78L22.023 27.37C22.1133 27.5561 22.2697 27.7156 22.4718 27.8279C22.6738 27.9403 22.9124 28.0002 23.1565 28C23.4028 27.9959 23.6417 27.9306 23.8419 27.8128C24.0421 27.6949 24.194 27.5301 24.2777 27.34L34.0277 5.34001C34.1108 5.16309 34.1308 4.97044 34.0855 4.78454C34.0401 4.59863 33.9314 4.42712 33.7718 4.29001Z" fill="#285D54"/>
</g>
</svg>
