<svg width="50" height="50" viewBox="0 0 50 50" fill="none" xmlns="http://www.w3.org/2000/svg">
<g id="fluent:emoji-16-regular">
<path id="Vector" d="M19.5312 24.2188C20.1529 24.2188 20.749 23.9718 21.1885 23.5323C21.6281 23.0927 21.875 22.4966 21.875 21.875C21.875 21.2534 21.6281 20.6573 21.1885 20.2177C20.749 19.7782 20.1529 19.5312 19.5312 19.5312C18.9096 19.5312 18.3135 19.7782 17.874 20.2177C17.4344 20.6573 17.1875 21.2534 17.1875 21.875C17.1875 22.4966 17.4344 23.0927 17.874 23.5323C18.3135 23.9718 18.9096 24.2188 19.5312 24.2188ZM19.175 30.2094C19.0388 30.0543 18.8731 29.9278 18.6877 29.8371C18.5023 29.7464 18.3007 29.6934 18.0947 29.6811C17.8886 29.6687 17.6822 29.6973 17.4873 29.7652C17.2924 29.8331 17.1128 29.939 16.959 30.0767C16.8053 30.2143 16.6803 30.3811 16.5913 30.5674C16.5024 30.7536 16.4512 30.9557 16.4408 31.1618C16.4303 31.368 16.4609 31.5741 16.5306 31.7684C16.6003 31.9627 16.7078 32.1413 16.8469 32.2937C17.8722 33.4416 19.1286 34.3596 20.5338 34.9875C21.9389 35.6155 23.4609 35.9393 25 35.9375C26.5391 35.9393 28.0611 35.6155 29.4662 34.9875C30.8714 34.3596 32.1278 33.4416 33.1531 32.2937C33.425 31.9843 33.5637 31.5801 33.5391 31.1689C33.5145 30.7578 33.3285 30.373 33.0216 30.0982C32.7148 29.8235 32.3118 29.681 31.9004 29.7019C31.4891 29.7227 31.1026 29.9051 30.825 30.2094C30.0929 31.03 29.1953 31.6862 28.1913 32.1349C27.1873 32.5835 26.0997 32.8145 25 32.8125C22.6875 32.8125 20.6094 31.8094 19.175 30.2094ZM32.8125 21.875C32.8125 22.4966 32.5656 23.0927 32.126 23.5323C31.6865 23.9718 31.0904 24.2188 30.4688 24.2188C29.8471 24.2188 29.251 23.9718 28.8115 23.5323C28.3719 23.0927 28.125 22.4966 28.125 21.875C28.125 21.2534 28.3719 20.6573 28.8115 20.2177C29.251 19.7782 29.8471 19.5312 30.4688 19.5312C31.0904 19.5312 31.6865 19.7782 32.126 20.2177C32.5656 20.6573 32.8125 21.2534 32.8125 21.875ZM43.75 25C43.75 22.5377 43.265 20.0995 42.3227 17.8247C41.3805 15.5498 39.9994 13.4828 38.2583 11.7417C36.5172 10.0006 34.4502 8.61953 32.1753 7.67726C29.9005 6.73498 27.4623 6.25 25 6.25C22.5377 6.25 20.0995 6.73498 17.8247 7.67726C15.5498 8.61953 13.4828 10.0006 11.7417 11.7417C10.0006 13.4828 8.61953 15.5498 7.67726 17.8247C6.73498 20.0995 6.25 22.5377 6.25 25C6.25 29.9728 8.22544 34.7419 11.7417 38.2583C15.2581 41.7746 20.0272 43.75 25 43.75C29.9728 43.75 34.7419 41.7746 38.2583 38.2583C41.7746 34.7419 43.75 29.9728 43.75 25ZM9.375 25C9.375 20.856 11.0212 16.8817 13.9515 13.9515C16.8817 11.0212 20.856 9.375 25 9.375C29.144 9.375 33.1183 11.0212 36.0485 13.9515C38.9788 16.8817 40.625 20.856 40.625 25C40.625 29.144 38.9788 33.1183 36.0485 36.0485C33.1183 38.9788 29.144 40.625 25 40.625C20.856 40.625 16.8817 38.9788 13.9515 36.0485C11.0212 33.1183 9.375 29.144 9.375 25Z" fill="#8B8A8A"/>
</g>
</svg>
