<svg width="74" height="24" viewBox="0 0 74 24" fill="none" xmlns="http://www.w3.org/2000/svg">
<g clip-path="url(#clip0_16_531)">
<rect width="74" height="24" rx="8" fill="#FEC400"/>
<path d="M17.0363 16.11C15.929 16.11 15.104 15.835 14.5613 15.285C14.026 14.7277 13.7583 13.9063 13.7583 12.821V8.245H15.1773V12.81C15.1773 13.4993 15.324 14.02 15.6173 14.372C15.918 14.724 16.391 14.9 17.0363 14.9C17.6523 14.9 18.1143 14.724 18.4223 14.372C18.7377 14.02 18.8953 13.4993 18.8953 12.81V8.245H20.2923V12.821C20.2923 13.9063 20.0173 14.7277 19.4673 15.285C18.9247 15.835 18.1143 16.11 17.0363 16.11ZM22.4449 16V8.245H25.8329C26.6836 8.245 27.3399 8.44667 27.8019 8.85C28.2712 9.25333 28.5059 9.81433 28.5059 10.533C28.5059 11.0097 28.3996 11.4167 28.1869 11.754C27.9816 12.0913 27.6846 12.3517 27.2959 12.535C26.9072 12.711 26.4489 12.799 25.9209 12.799L26.0749 12.59H26.4489C26.7569 12.59 27.0319 12.6707 27.2739 12.832C27.5159 12.9933 27.7139 13.239 27.8679 13.569L29.0009 16H27.4389L26.2949 13.481C26.1922 13.2243 26.0346 13.0557 25.8219 12.975C25.6166 12.8943 25.3672 12.854 25.0739 12.854H23.8639V16H22.4449ZM23.8639 11.809H25.6019C26.1006 11.809 26.4782 11.7063 26.7349 11.501C26.9989 11.2883 27.1309 10.9803 27.1309 10.577C27.1309 10.1737 26.9989 9.86933 26.7349 9.664C26.4782 9.45867 26.1006 9.356 25.6019 9.356H23.8639V11.809ZM34.3548 16.11C33.4822 16.11 32.7488 15.9487 32.1548 15.626C31.5608 15.3033 31.1135 14.845 30.8128 14.251C30.5122 13.657 30.3618 12.953 30.3618 12.139C30.3618 11.3177 30.5232 10.61 30.8458 10.016C31.1685 9.41467 31.6305 8.95267 32.2318 8.63C32.8405 8.3 33.5702 8.135 34.4208 8.135C34.9855 8.135 35.4805 8.212 35.9058 8.366C36.3312 8.51267 36.7052 8.729 37.0278 9.015L36.5548 10.115C36.3202 9.93167 36.0965 9.785 35.8838 9.675C35.6712 9.565 35.4512 9.488 35.2238 9.444C34.9965 9.39267 34.7325 9.367 34.4318 9.367C33.5812 9.367 32.9358 9.609 32.4958 10.093C32.0632 10.5697 31.8468 11.2553 31.8468 12.15C31.8468 13.0447 32.0522 13.7267 32.4628 14.196C32.8808 14.6653 33.5335 14.9 34.4208 14.9C34.7215 14.9 35.0222 14.8707 35.3228 14.812C35.6308 14.7533 35.9315 14.669 36.2248 14.559L35.9608 15.153V12.832H34.1458V11.798H37.1378V15.527C36.7785 15.7103 36.3495 15.8533 35.8508 15.956C35.3522 16.0587 34.8535 16.11 34.3548 16.11ZM39.2574 16V8.245H44.4824V9.356H40.6214V11.501H44.2294V12.623H40.6214V14.878H44.4824V16H39.2574ZM46.2994 16V8.245H47.3664L51.8654 14.064H51.5794V8.245H52.8994V16H51.8324L47.3444 10.181H47.6194V16H46.2994ZM56.9291 16V9.411H54.3661V8.245H60.9111V9.411H58.3481V16H56.9291Z" fill="white"/>
</g>
<defs>
<clipPath id="clip0_16_531">
<rect width="74" height="24" fill="white"/>
</clipPath>
</defs>
</svg>
